<mxfile host="app.diagrams.net" modified="2023-05-17T01:57:31.531Z" agent="Mozilla/5.0 (Windows NT 10.0; Win64; x64) AppleWebKit/537.36 (KHTML, like Gecko) Chrome/113.0.0.0 Safari/537.36" etag="Nm5jQFxN7k1kNFFkv8Gr" version="21.3.2" type="device">
  <diagram name="spi框架" id="r469Aau0il12RCDZeFJq">
    <mxGraphModel dx="1050" dy="625" grid="1" gridSize="10" guides="1" tooltips="1" connect="1" arrows="1" fold="1" page="1" pageScale="1" pageWidth="827" pageHeight="1169" math="0" shadow="0">
      <root>
        <mxCell id="0" />
        <mxCell id="1" parent="0" />
        <mxCell id="YLcGSClGb8Fl1g5VTm5p-1" value="" style="rounded=0;whiteSpace=wrap;html=1;fillColor=none;" vertex="1" parent="1">
          <mxGeometry x="180" y="150" width="420" height="290" as="geometry" />
        </mxCell>
        <mxCell id="YLcGSClGb8Fl1g5VTm5p-2" value="SPI子系统" style="text;html=1;strokeColor=none;fillColor=none;align=center;verticalAlign=middle;whiteSpace=wrap;rounded=0;" vertex="1" parent="1">
          <mxGeometry x="180" y="120" width="60" height="30" as="geometry" />
        </mxCell>
        <mxCell id="YLcGSClGb8Fl1g5VTm5p-3" value="SPI核心" style="rounded=0;whiteSpace=wrap;html=1;" vertex="1" parent="1">
          <mxGeometry x="355" y="260" width="70" height="40" as="geometry" />
        </mxCell>
        <mxCell id="YLcGSClGb8Fl1g5VTm5p-4" value="SPI设备" style="rounded=0;whiteSpace=wrap;html=1;" vertex="1" parent="1">
          <mxGeometry x="250" y="260" width="70" height="40" as="geometry" />
        </mxCell>
        <mxCell id="YLcGSClGb8Fl1g5VTm5p-5" value="SPI控制器" style="rounded=0;whiteSpace=wrap;html=1;" vertex="1" parent="1">
          <mxGeometry x="460" y="260" width="70" height="40" as="geometry" />
        </mxCell>
        <mxCell id="YLcGSClGb8Fl1g5VTm5p-6" value="设备树绑定" style="rounded=0;whiteSpace=wrap;html=1;" vertex="1" parent="1">
          <mxGeometry x="350" y="330" width="80" height="40" as="geometry" />
        </mxCell>
      </root>
    </mxGraphModel>
  </diagram>
</mxfile>
